# Tiled2Unity generated file. Do not modify by hand.
# Wavefront file for 'escena1_mesh_0002.obj'

# Vertices (Count = 1068)
v 0 -1 0
v -1 -1 0
v -1 0 0
v 0 0 0
v -1 -1 0
v -2 -1 0
v -2 0 0
v -1 0 0
v -2 -1 0
v -3 -1 0
v -3 0 0
v -2 0 0
v -3 -1 0
v -4 -1 0
v -4 0 0
v -3 0 0
v -4 -1 0
v -5 -1 0
v -5 0 0
v -4 0 0
v -5 -1 0
v -6 -1 0
v -6 0 0
v -5 0 0
v -6 -1 0
v -7 -1 0
v -7 0 0
v -6 0 0
v -7 -1 0
v -8 -1 0
v -8 0 0
v -7 0 0
v -8 -1 0
v -9 -1 0
v -9 0 0
v -8 0 0
v -9 -1 0
v -10 -1 0
v -10 0 0
v -9 0 0
v -10 -1 0
v -11 -1 0
v -11 0 0
v -10 0 0
v -11 -1 0
v -12 -1 0
v -12 0 0
v -11 0 0
v -12 -1 0
v -13 -1 0
v -13 0 0
v -12 0 0
v -13 -1 0
v -14 -1 0
v -14 0 0
v -13 0 0
v -14 -1 0
v -15 -1 0
v -15 0 0
v -14 0 0
v 0 -2 0
v -1 -2 0
v -1 -1 0
v 0 -1 0
v -1 -2 0
v -2 -2 0
v -2 -1 0
v -1 -1 0
v -2 -2 0
v -3 -2 0
v -3 -1 0
v -2 -1 0
v -3 -2 0
v -4 -2 0
v -4 -1 0
v -3 -1 0
v -4 -2 0
v -5 -2 0
v -5 -1 0
v -4 -1 0
v -5 -2 0
v -6 -2 0
v -6 -1 0
v -5 -1 0
v -6 -2 0
v -7 -2 0
v -7 -1 0
v -6 -1 0
v -7 -2 0
v -8 -2 0
v -8 -1 0
v -7 -1 0
v -8 -2 0
v -9 -2 0
v -9 -1 0
v -8 -1 0
v -9 -2 0
v -10 -2 0
v -10 -1 0
v -9 -1 0
v -10 -2 0
v -11 -2 0
v -11 -1 0
v -10 -1 0
v -11 -2 0
v -12 -2 0
v -12 -1 0
v -11 -1 0
v -12 -2 0
v -13 -2 0
v -13 -1 0
v -12 -1 0
v -13 -2 0
v -14 -2 0
v -14 -1 0
v -13 -1 0
v -14 -2 0
v -15 -2 0
v -15 -1 0
v -14 -1 0
v 0 -3 0
v -1 -3 0
v -1 -2 0
v 0 -2 0
v -1 -3 0
v -2 -3 0
v -2 -2 0
v -1 -2 0
v -2 -3 0
v -3 -3 0
v -3 -2 0
v -2 -2 0
v -3 -3 0
v -4 -3 0
v -4 -2 0
v -3 -2 0
v -4 -3 0
v -5 -3 0
v -5 -2 0
v -4 -2 0
v -5 -3 0
v -6 -3 0
v -6 -2 0
v -5 -2 0
v -6 -3 0
v -7 -3 0
v -7 -2 0
v -6 -2 0
v -7 -3 0
v -8 -3 0
v -8 -2 0
v -7 -2 0
v -8 -3 0
v -9 -3 0
v -9 -2 0
v -8 -2 0
v -9 -3 0
v -10 -3 0
v -10 -2 0
v -9 -2 0
v -10 -3 0
v -11 -3 0
v -11 -2 0
v -10 -2 0
v -11 -3 0
v -12 -3 0
v -12 -2 0
v -11 -2 0
v -12 -3 0
v -13 -3 0
v -13 -2 0
v -12 -2 0
v -13 -3 0
v -14 -3 0
v -14 -2 0
v -13 -2 0
v -14 -3 0
v -15 -3 0
v -15 -2 0
v -14 -2 0
v 0 -4 0
v -1 -4 0
v -1 -3 0
v 0 -3 0
v -1 -4 0
v -2 -4 0
v -2 -3 0
v -1 -3 0
v -2 -4 0
v -3 -4 0
v -3 -3 0
v -2 -3 0
v -3 -4 0
v -4 -4 0
v -4 -3 0
v -3 -3 0
v -4 -4 0
v -5 -4 0
v -5 -3 0
v -4 -3 0
v -5 -4 0
v -6 -4 0
v -6 -3 0
v -5 -3 0
v -6 -4 0
v -7 -4 0
v -7 -3 0
v -6 -3 0
v -7 -4 0
v -8 -4 0
v -8 -3 0
v -7 -3 0
v -8 -4 0
v -9 -4 0
v -9 -3 0
v -8 -3 0
v -9 -4 0
v -10 -4 0
v -10 -3 0
v -9 -3 0
v -10 -4 0
v -11 -4 0
v -11 -3 0
v -10 -3 0
v -11 -4 0
v -12 -4 0
v -12 -3 0
v -11 -3 0
v -12 -4 0
v -13 -4 0
v -13 -3 0
v -12 -3 0
v -13 -4 0
v -14 -4 0
v -14 -3 0
v -13 -3 0
v -14 -4 0
v -15 -4 0
v -15 -3 0
v -14 -3 0
v 0 -5 0
v -1 -5 0
v -1 -4 0
v 0 -4 0
v -1 -5 0
v -2 -5 0
v -2 -4 0
v -1 -4 0
v -2 -5 0
v -3 -5 0
v -3 -4 0
v -2 -4 0
v -3 -5 0
v -4 -5 0
v -4 -4 0
v -3 -4 0
v -4 -5 0
v -5 -5 0
v -5 -4 0
v -4 -4 0
v -5 -5 0
v -6 -5 0
v -6 -4 0
v -5 -4 0
v -6 -5 0
v -7 -5 0
v -7 -4 0
v -6 -4 0
v -7 -5 0
v -8 -5 0
v -8 -4 0
v -7 -4 0
v -8 -5 0
v -9 -5 0
v -9 -4 0
v -8 -4 0
v -9 -5 0
v -10 -5 0
v -10 -4 0
v -9 -4 0
v -10 -5 0
v -11 -5 0
v -11 -4 0
v -10 -4 0
v -11 -5 0
v -12 -5 0
v -12 -4 0
v -11 -4 0
v -12 -5 0
v -13 -5 0
v -13 -4 0
v -12 -4 0
v -13 -5 0
v -14 -5 0
v -14 -4 0
v -13 -4 0
v -14 -5 0
v -15 -5 0
v -15 -4 0
v -14 -4 0
v 0 -6 0
v -1 -6 0
v -1 -5 0
v 0 -5 0
v -1 -6 0
v -2 -6 0
v -2 -5 0
v -1 -5 0
v -2 -6 0
v -3 -6 0
v -3 -5 0
v -2 -5 0
v -3 -6 0
v -4 -6 0
v -4 -5 0
v -3 -5 0
v -4 -6 0
v -5 -6 0
v -5 -5 0
v -4 -5 0
v -5 -6 0
v -6 -6 0
v -6 -5 0
v -5 -5 0
v -6 -6 0
v -7 -6 0
v -7 -5 0
v -6 -5 0
v -7 -6 0
v -8 -6 0
v -8 -5 0
v -7 -5 0
v -8 -6 0
v -9 -6 0
v -9 -5 0
v -8 -5 0
v -9 -6 0
v -10 -6 0
v -10 -5 0
v -9 -5 0
v -10 -6 0
v -11 -6 0
v -11 -5 0
v -10 -5 0
v -11 -6 0
v -12 -6 0
v -12 -5 0
v -11 -5 0
v -12 -6 0
v -13 -6 0
v -13 -5 0
v -12 -5 0
v -13 -6 0
v -14 -6 0
v -14 -5 0
v -13 -5 0
v -14 -6 0
v -15 -6 0
v -15 -5 0
v -14 -5 0
v 0 -7 0
v -1 -7 0
v -1 -6 0
v 0 -6 0
v -1 -7 0
v -2 -7 0
v -2 -6 0
v -1 -6 0
v -2 -7 0
v -3 -7 0
v -3 -6 0
v -2 -6 0
v -3 -7 0
v -4 -7 0
v -4 -6 0
v -3 -6 0
v -4 -7 0
v -5 -7 0
v -5 -6 0
v -4 -6 0
v -5 -7 0
v -6 -7 0
v -6 -6 0
v -5 -6 0
v -6 -7 0
v -7 -7 0
v -7 -6 0
v -6 -6 0
v -7 -7 0
v -8 -7 0
v -8 -6 0
v -7 -6 0
v -8 -7 0
v -9 -7 0
v -9 -6 0
v -8 -6 0
v -9 -7 0
v -10 -7 0
v -10 -6 0
v -9 -6 0
v -10 -7 0
v -11 -7 0
v -11 -6 0
v -10 -6 0
v -11 -7 0
v -12 -7 0
v -12 -6 0
v -11 -6 0
v -12 -7 0
v -13 -7 0
v -13 -6 0
v -12 -6 0
v -13 -7 0
v -14 -7 0
v -14 -6 0
v -13 -6 0
v -14 -7 0
v -15 -7 0
v -15 -6 0
v -14 -6 0
v 0 -8 0
v -1 -8 0
v -1 -7 0
v 0 -7 0
v -1 -8 0
v -2 -8 0
v -2 -7 0
v -1 -7 0
v -2 -8 0
v -3 -8 0
v -3 -7 0
v -2 -7 0
v -3 -8 0
v -4 -8 0
v -4 -7 0
v -3 -7 0
v -4 -8 0
v -5 -8 0
v -5 -7 0
v -4 -7 0
v -5 -8 0
v -6 -8 0
v -6 -7 0
v -5 -7 0
v -6 -8 0
v -7 -8 0
v -7 -7 0
v -6 -7 0
v -7 -8 0
v -8 -8 0
v -8 -7 0
v -7 -7 0
v -8 -8 0
v -9 -8 0
v -9 -7 0
v -8 -7 0
v -9 -8 0
v -10 -8 0
v -10 -7 0
v -9 -7 0
v -10 -8 0
v -11 -8 0
v -11 -7 0
v -10 -7 0
v -11 -8 0
v -12 -8 0
v -12 -7 0
v -11 -7 0
v -12 -8 0
v -13 -8 0
v -13 -7 0
v -12 -7 0
v -13 -8 0
v -14 -8 0
v -14 -7 0
v -13 -7 0
v -14 -8 0
v -15 -8 0
v -15 -7 0
v -14 -7 0
v 0 -9 0
v -1 -9 0
v -1 -8 0
v 0 -8 0
v -1 -9 0
v -2 -9 0
v -2 -8 0
v -1 -8 0
v -5 -9 0
v -6 -9 0
v -6 -8 0
v -5 -8 0
v -6 -9 0
v -7 -9 0
v -7 -8 0
v -6 -8 0
v -7 -9 0
v -8 -9 0
v -8 -8 0
v -7 -8 0
v -8 -9 0
v -9 -9 0
v -9 -8 0
v -8 -8 0
v -9 -9 0
v -10 -9 0
v -10 -8 0
v -9 -8 0
v -10 -9 0
v -11 -9 0
v -11 -8 0
v -10 -8 0
v -11 -9 0
v -12 -9 0
v -12 -8 0
v -11 -8 0
v -12 -9 0
v -13 -9 0
v -13 -8 0
v -12 -8 0
v -13 -9 0
v -14 -9 0
v -14 -8 0
v -13 -8 0
v -14 -9 0
v -15 -9 0
v -15 -8 0
v -14 -8 0
v 0 -10 0
v -1 -10 0
v -1 -9 0
v 0 -9 0
v -1 -10 0
v -2 -10 0
v -2 -9 0
v -1 -9 0
v -5 -10 0
v -6 -10 0
v -6 -9 0
v -5 -9 0
v -6 -10 0
v -7 -10 0
v -7 -9 0
v -6 -9 0
v -7 -10 0
v -8 -10 0
v -8 -9 0
v -7 -9 0
v -8 -10 0
v -9 -10 0
v -9 -9 0
v -8 -9 0
v -9 -10 0
v -10 -10 0
v -10 -9 0
v -9 -9 0
v -10 -10 0
v -11 -10 0
v -11 -9 0
v -10 -9 0
v -11 -10 0
v -12 -10 0
v -12 -9 0
v -11 -9 0
v -12 -10 0
v -13 -10 0
v -13 -9 0
v -12 -9 0
v -13 -10 0
v -14 -10 0
v -14 -9 0
v -13 -9 0
v -14 -10 0
v -15 -10 0
v -15 -9 0
v -14 -9 0
v 0 -11 0
v -1 -11 0
v -1 -10 0
v 0 -10 0
v -1 -11 0
v -2 -11 0
v -2 -10 0
v -1 -10 0
v -3 -11 0
v -4 -11 0
v -4 -10 0
v -3 -10 0
v -4 -11 0
v -5 -11 0
v -5 -10 0
v -4 -10 0
v -5 -11 0
v -6 -11 0
v -6 -10 0
v -5 -10 0
v -6 -11 0
v -7 -11 0
v -7 -10 0
v -6 -10 0
v -7 -11 0
v -8 -11 0
v -8 -10 0
v -7 -10 0
v -8 -11 0
v -9 -11 0
v -9 -10 0
v -8 -10 0
v -9 -11 0
v -10 -11 0
v -10 -10 0
v -9 -10 0
v -10 -11 0
v -11 -11 0
v -11 -10 0
v -10 -10 0
v -11 -11 0
v -12 -11 0
v -12 -10 0
v -11 -10 0
v -12 -11 0
v -13 -11 0
v -13 -10 0
v -12 -10 0
v -13 -11 0
v -14 -11 0
v -14 -10 0
v -13 -10 0
v -14 -11 0
v -15 -11 0
v -15 -10 0
v -14 -10 0
v 0 -12 0
v -1 -12 0
v -1 -11 0
v 0 -11 0
v -1 -12 0
v -2 -12 0
v -2 -11 0
v -1 -11 0
v -3 -12 0
v -4 -12 0
v -4 -11 0
v -3 -11 0
v -4 -12 0
v -5 -12 0
v -5 -11 0
v -4 -11 0
v -5 -12 0
v -6 -12 0
v -6 -11 0
v -5 -11 0
v -6 -12 0
v -7 -12 0
v -7 -11 0
v -6 -11 0
v -7 -12 0
v -8 -12 0
v -8 -11 0
v -7 -11 0
v -8 -12 0
v -9 -12 0
v -9 -11 0
v -8 -11 0
v -9 -12 0
v -10 -12 0
v -10 -11 0
v -9 -11 0
v -10 -12 0
v -11 -12 0
v -11 -11 0
v -10 -11 0
v -11 -12 0
v -12 -12 0
v -12 -11 0
v -11 -11 0
v -12 -12 0
v -13 -12 0
v -13 -11 0
v -12 -11 0
v -13 -12 0
v -14 -12 0
v -14 -11 0
v -13 -11 0
v -14 -12 0
v -15 -12 0
v -15 -11 0
v -14 -11 0
v 0 -13 0
v -1 -13 0
v -1 -12 0
v 0 -12 0
v -1 -13 0
v -2 -13 0
v -2 -12 0
v -1 -12 0
v -3 -13 0
v -4 -13 0
v -4 -12 0
v -3 -12 0
v -4 -13 0
v -5 -13 0
v -5 -12 0
v -4 -12 0
v -5 -13 0
v -6 -13 0
v -6 -12 0
v -5 -12 0
v -6 -13 0
v -7 -13 0
v -7 -12 0
v -6 -12 0
v -7 -13 0
v -8 -13 0
v -8 -12 0
v -7 -12 0
v -8 -13 0
v -9 -13 0
v -9 -12 0
v -8 -12 0
v -9 -13 0
v -10 -13 0
v -10 -12 0
v -9 -12 0
v -10 -13 0
v -11 -13 0
v -11 -12 0
v -10 -12 0
v -11 -13 0
v -12 -13 0
v -12 -12 0
v -11 -12 0
v -12 -13 0
v -13 -13 0
v -13 -12 0
v -12 -12 0
v -14 -13 0
v -15 -13 0
v -15 -12 0
v -14 -12 0
v 0 -14 0
v -1 -14 0
v -1 -13 0
v 0 -13 0
v -1 -14 0
v -2 -14 0
v -2 -13 0
v -1 -13 0
v -3 -14 0
v -4 -14 0
v -4 -13 0
v -3 -13 0
v -4 -14 0
v -5 -14 0
v -5 -13 0
v -4 -13 0
v -5 -14 0
v -6 -14 0
v -6 -13 0
v -5 -13 0
v -6 -14 0
v -7 -14 0
v -7 -13 0
v -6 -13 0
v -7 -14 0
v -8 -14 0
v -8 -13 0
v -7 -13 0
v -8 -14 0
v -9 -14 0
v -9 -13 0
v -8 -13 0
v -9 -14 0
v -10 -14 0
v -10 -13 0
v -9 -13 0
v -10 -14 0
v -11 -14 0
v -11 -13 0
v -10 -13 0
v -11 -14 0
v -12 -14 0
v -12 -13 0
v -11 -13 0
v -12 -14 0
v -13 -14 0
v -13 -13 0
v -12 -13 0
v -14 -14 0
v -15 -14 0
v -15 -13 0
v -14 -13 0
v 0 -15 0
v -1 -15 0
v -1 -14 0
v 0 -14 0
v -1 -15 0
v -2 -15 0
v -2 -14 0
v -1 -14 0
v -3 -15 0
v -4 -15 0
v -4 -14 0
v -3 -14 0
v -4 -15 0
v -5 -15 0
v -5 -14 0
v -4 -14 0
v -5 -15 0
v -6 -15 0
v -6 -14 0
v -5 -14 0
v -6 -15 0
v -7 -15 0
v -7 -14 0
v -6 -14 0
v -7 -15 0
v -8 -15 0
v -8 -14 0
v -7 -14 0
v -8 -15 0
v -9 -15 0
v -9 -14 0
v -8 -14 0
v -9 -15 0
v -10 -15 0
v -10 -14 0
v -9 -14 0
v -10 -15 0
v -11 -15 0
v -11 -14 0
v -10 -14 0
v -11 -15 0
v -12 -15 0
v -12 -14 0
v -11 -14 0
v -12 -15 0
v -13 -15 0
v -13 -14 0
v -12 -14 0
v -13 -15 0
v -14 -15 0
v -14 -14 0
v -13 -14 0
v -14 -15 0
v -15 -15 0
v -15 -14 0
v -14 -14 0
v 0 -16 0
v -1 -16 0
v -1 -15 0
v 0 -15 0
v -1 -16 0
v -2 -16 0
v -2 -15 0
v -1 -15 0
v -3 -16 0
v -4 -16 0
v -4 -15 0
v -3 -15 0
v -4 -16 0
v -5 -16 0
v -5 -15 0
v -4 -15 0
v -5 -16 0
v -6 -16 0
v -6 -15 0
v -5 -15 0
v -6 -16 0
v -7 -16 0
v -7 -15 0
v -6 -15 0
v -7 -16 0
v -8 -16 0
v -8 -15 0
v -7 -15 0
v -8 -16 0
v -9 -16 0
v -9 -15 0
v -8 -15 0
v -9 -16 0
v -10 -16 0
v -10 -15 0
v -9 -15 0
v -10 -16 0
v -11 -16 0
v -11 -15 0
v -10 -15 0
v -11 -16 0
v -12 -16 0
v -12 -15 0
v -11 -15 0
v -12 -16 0
v -13 -16 0
v -13 -15 0
v -12 -15 0
v -13 -16 0
v -14 -16 0
v -14 -15 0
v -13 -15 0
v -14 -16 0
v -15 -16 0
v -15 -15 0
v -14 -15 0
v 0 -17 0
v -1 -17 0
v -1 -16 0
v 0 -16 0
v -3 -17 0
v -4 -17 0
v -4 -16 0
v -3 -16 0
v -4 -17 0
v -5 -17 0
v -5 -16 0
v -4 -16 0
v -12 -17 0
v -13 -17 0
v -13 -16 0
v -12 -16 0
v -13 -17 0
v -14 -17 0
v -14 -16 0
v -13 -16 0
v -14 -17 0
v -15 -17 0
v -15 -16 0
v -14 -16 0
v 0 -18 0
v -1 -18 0
v -1 -17 0
v 0 -17 0
v -1 -18 0
v -2 -18 0
v -2 -17 0
v -1 -17 0
v -2 -18 0
v -3 -18 0
v -3 -17 0
v -2 -17 0
v -3 -18 0
v -4 -18 0
v -4 -17 0
v -3 -17 0
v -4 -18 0
v -5 -18 0
v -5 -17 0
v -4 -17 0
v -5 -18 0
v -6 -18 0
v -6 -17 0
v -5 -17 0
v -6 -18 0
v -7 -18 0
v -7 -17 0
v -6 -17 0
v -7 -18 0
v -8 -18 0
v -8 -17 0
v -7 -17 0
v -8 -18 0
v -9 -18 0
v -9 -17 0
v -8 -17 0
v -9 -18 0
v -10 -18 0
v -10 -17 0
v -9 -17 0
v -10 -18 0
v -11 -18 0
v -11 -17 0
v -10 -17 0
v -11 -18 0
v -12 -18 0
v -12 -17 0
v -11 -17 0
v -12 -18 0
v -13 -18 0
v -13 -17 0
v -12 -17 0
v -13 -18 0
v -14 -18 0
v -14 -17 0
v -13 -17 0
v -14 -18 0
v -15 -18 0
v -15 -17 0
v -14 -17 0
v 0 -19 0
v -1 -19 0
v -1 -18 0
v 0 -18 0
v -1 -19 0
v -2 -19 0
v -2 -18 0
v -1 -18 0
v -2 -19 0
v -3 -19 0
v -3 -18 0
v -2 -18 0
v -3 -19 0
v -4 -19 0
v -4 -18 0
v -3 -18 0
v -4 -19 0
v -5 -19 0
v -5 -18 0
v -4 -18 0
v -5 -19 0
v -6 -19 0
v -6 -18 0
v -5 -18 0
v -6 -19 0
v -7 -19 0
v -7 -18 0
v -6 -18 0
v -7 -19 0
v -8 -19 0
v -8 -18 0
v -7 -18 0
v -8 -19 0
v -9 -19 0
v -9 -18 0
v -8 -18 0
v -9 -19 0
v -10 -19 0
v -10 -18 0
v -9 -18 0
v -10 -19 0
v -11 -19 0
v -11 -18 0
v -10 -18 0
v -11 -19 0
v -12 -19 0
v -12 -18 0
v -11 -18 0
v -12 -19 0
v -13 -19 0
v -13 -18 0
v -12 -18 0
v -13 -19 0
v -14 -19 0
v -14 -18 0
v -13 -18 0
v -14 -19 0
v -15 -19 0
v -15 -18 0
v -14 -18 0
v -1 -20 0
v -2 -20 0
v -2 -19 0
v -1 -19 0
v -2 -20 0
v -3 -20 0
v -3 -19 0
v -2 -19 0
v -3 -20 0
v -4 -20 0
v -4 -19 0
v -3 -19 0
v -4 -20 0
v -5 -20 0
v -5 -19 0
v -4 -19 0
v -14 -20 0
v -15 -20 0
v -15 -19 0
v -14 -19 0

# Texture cooridinates (Count = 92)
vt 0.625 0.3823256
vt 0.75 0.3823256
vt 0.75 0.3860465
vt 0.625 0.3860465
vt 0.875 0.3823256
vt 0.875 0.3860465
vt 1 0.3823256
vt 1 0.3860465
vt 0.5 0.3748837
vt 0.625 0.3748837
vt 0.625 0.3786047
vt 0.5 0.3786047
vt 0.75 0.3674419
vt 0.875 0.3674419
vt 0.875 0.3711628
vt 0.75 0.3711628
vt 0.875 0.3897674
vt 0.75 0.3897674
vt 0.75 0.3786047
vt 0.875 0.3786047
vt 1 0.3786047
vt 0.5 0.3711628
vt 0.625 0.3711628
vt 0.75 0.3748837
vt 0.875 0.3748837
vt 1 0.3748837
vt 0.25 0.3860465
vt 0.375 0.3860465
vt 0.375 0.3897674
vt 0.25 0.3897674
vt 0.625 0.8995349
vt 0.75 0.8995349
vt 0.75 0.9032558
vt 0.625 0.9032558
vt 0.875 0.8995349
vt 0.875 0.9032558
vt 0.25 0.8809302
vt 0.375 0.8809302
vt 0.375 0.8846512
vt 0.25 0.8846512
vt 0.5 0.3488372
vt 0.625 0.3488372
vt 0.625 0.3525581
vt 0.5 0.3525581
vt 0.625 0.8958139
vt 0.75 0.8958139
vt 0.875 0.8958139
vt 0.75 0.9962791
vt 0.875 0.9962791
vt 0.875 1
vt 0.75 1
vt 1 0.9962791
vt 1 1
vt 0.875 0.9813954
vt 1 0.9813954
vt 1 0.9851163
vt 0.875 0.9851163
vt 0.125 0.9925581
vt 0.25 0.9925581
vt 0.25 0.9962791
vt 0.125 0.9962791
vt 0.75 0.9925581
vt 0.875 0.9925581
vt 1 0.9925581
vt 0.75 0.9888372
vt 0.875 0.9888372
vt 1 0.9888372
vt 0.625 0.9330233
vt 0.75 0.9330233
vt 0.75 0.9367442
vt 0.625 0.9367442
vt 0.875 0.9330233
vt 0.875 0.9367442
vt 1 0.9330233
vt 1 0.9367442
vt 0.75 0.9851163
vt 0.5 0.9925581
vt 0.625 0.9925581
vt 0.625 0.9962791
vt 0.5 0.9962791
vt 0.5 0.9888372
vt 0.625 0.9888372
vt 0.75 0.9813954
vt 0.375 0.9962791
vt 0.5 1
vt 0.375 1
vt 0.125 0.9776744
vt 0.25 0.9776744
vt 0.25 0.9813954
vt 0.125 0.9813954
vt 0.5 0.9851163
vt 0.625 0.9851163

# Normal
vn 0 0 -1

# Mesh description
g escena1_mesh_0002

# Faces
f 1/1/1 2/2/1 3/3/1 4/4/1
f 5/2/1 6/5/1 7/6/1 8/3/1
f 9/5/1 10/7/1 11/8/1 12/6/1
f 13/9/1 14/10/1 15/11/1 16/12/1
f 17/13/1 18/14/1 19/15/1 20/16/1
f 21/13/1 22/14/1 23/15/1 24/16/1
f 25/13/1 26/14/1 27/15/1 28/16/1
f 29/13/1 30/14/1 31/15/1 32/16/1
f 33/13/1 34/14/1 35/15/1 36/16/1
f 37/13/1 38/14/1 39/15/1 40/16/1
f 41/9/1 42/10/1 43/11/1 44/12/1
f 45/3/1 46/6/1 47/17/1 48/18/1
f 49/3/1 50/6/1 51/17/1 52/18/1
f 53/3/1 54/6/1 55/17/1 56/18/1
f 57/3/1 58/6/1 59/17/1 60/18/1
f 61/11/1 62/19/1 63/2/1 64/1/1
f 65/19/1 66/20/1 67/5/1 68/2/1
f 69/20/1 70/21/1 71/7/1 72/5/1
f 73/22/1 74/23/1 75/10/1 76/9/1
f 77/13/1 78/14/1 79/15/1 80/16/1
f 81/13/1 82/14/1 83/15/1 84/16/1
f 85/13/1 86/14/1 87/15/1 88/16/1
f 89/13/1 90/14/1 91/15/1 92/16/1
f 93/13/1 94/14/1 95/15/1 96/16/1
f 97/13/1 98/14/1 99/15/1 100/16/1
f 101/9/1 102/10/1 103/11/1 104/12/1
f 105/3/1 106/6/1 107/17/1 108/18/1
f 109/3/1 110/6/1 111/17/1 112/18/1
f 113/3/1 114/6/1 115/17/1 116/18/1
f 117/3/1 118/6/1 119/17/1 120/18/1
f 121/10/1 122/24/1 123/19/1 124/11/1
f 125/24/1 126/25/1 127/20/1 128/19/1
f 129/25/1 130/26/1 131/21/1 132/20/1
f 133/9/1 134/10/1 135/11/1 136/12/1
f 137/13/1 138/14/1 139/15/1 140/16/1
f 141/13/1 142/14/1 143/15/1 144/16/1
f 145/13/1 146/14/1 147/15/1 148/16/1
f 149/13/1 150/14/1 151/15/1 152/16/1
f 153/13/1 154/14/1 155/15/1 156/16/1
f 157/13/1 158/14/1 159/15/1 160/16/1
f 161/22/1 162/23/1 163/10/1 164/9/1
f 165/3/1 166/6/1 167/17/1 168/18/1
f 169/3/1 170/6/1 171/17/1 172/18/1
f 173/3/1 174/6/1 175/17/1 176/18/1
f 177/3/1 178/6/1 179/17/1 180/18/1
f 181/1/1 182/2/1 183/3/1 184/4/1
f 185/2/1 186/5/1 187/6/1 188/3/1
f 189/5/1 190/7/1 191/8/1 192/6/1
f 193/22/1 194/23/1 195/10/1 196/9/1
f 197/13/1 198/14/1 199/15/1 200/16/1
f 201/13/1 202/14/1 203/15/1 204/16/1
f 205/13/1 206/14/1 207/15/1 208/16/1
f 209/13/1 210/14/1 211/15/1 212/16/1
f 213/13/1 214/14/1 215/15/1 216/16/1
f 217/13/1 218/14/1 219/15/1 220/16/1
f 221/27/1 222/28/1 223/29/1 224/30/1
f 225/3/1 226/6/1 227/17/1 228/18/1
f 229/3/1 230/6/1 231/17/1 232/18/1
f 233/3/1 234/6/1 235/17/1 236/18/1
f 237/3/1 238/6/1 239/17/1 240/18/1
f 241/11/1 242/19/1 243/2/1 244/1/1
f 245/19/1 246/20/1 247/5/1 248/2/1
f 249/20/1 250/21/1 251/7/1 252/5/1
f 253/9/1 254/10/1 255/11/1 256/12/1
f 257/13/1 258/14/1 259/15/1 260/16/1
f 261/13/1 262/14/1 263/15/1 264/16/1
f 265/13/1 266/14/1 267/15/1 268/16/1
f 269/13/1 270/14/1 271/15/1 272/16/1
f 273/13/1 274/14/1 275/15/1 276/16/1
f 277/13/1 278/14/1 279/15/1 280/16/1
f 281/27/1 282/28/1 283/29/1 284/30/1
f 285/3/1 286/6/1 287/17/1 288/18/1
f 289/3/1 290/6/1 291/17/1 292/18/1
f 293/3/1 294/6/1 295/17/1 296/18/1
f 297/3/1 298/6/1 299/17/1 300/18/1
f 301/10/1 302/24/1 303/19/1 304/11/1
f 305/24/1 306/25/1 307/20/1 308/19/1
f 309/25/1 310/26/1 311/21/1 312/20/1
f 313/22/1 314/23/1 315/10/1 316/9/1
f 317/27/1 318/28/1 319/29/1 320/30/1
f 321/27/1 322/28/1 323/29/1 324/30/1
f 325/13/1 326/14/1 327/15/1 328/16/1
f 329/13/1 330/14/1 331/15/1 332/16/1
f 333/27/1 334/28/1 335/29/1 336/30/1
f 337/27/1 338/28/1 339/29/1 340/30/1
f 341/27/1 342/28/1 343/29/1 344/30/1
f 345/3/1 346/6/1 347/17/1 348/18/1
f 349/3/1 350/6/1 351/17/1 352/18/1
f 353/3/1 354/6/1 355/17/1 356/18/1
f 357/3/1 358/6/1 359/17/1 360/18/1
f 361/31/1 362/32/1 363/33/1 364/34/1
f 365/32/1 366/35/1 367/36/1 368/33/1
f 369/37/1 370/38/1 371/39/1 372/40/1
f 373/37/1 374/38/1 375/39/1 376/40/1
f 377/37/1 378/38/1 379/39/1 380/40/1
f 381/37/1 382/38/1 383/39/1 384/40/1
f 385/41/1 386/42/1 387/43/1 388/44/1
f 389/41/1 390/42/1 391/43/1 392/44/1
f 393/37/1 394/38/1 395/39/1 396/40/1
f 397/37/1 398/38/1 399/39/1 400/40/1
f 401/37/1 402/38/1 403/39/1 404/40/1
f 405/37/1 406/38/1 407/39/1 408/40/1
f 409/37/1 410/38/1 411/39/1 412/40/1
f 413/31/1 414/32/1 415/33/1 416/34/1
f 417/32/1 418/35/1 419/36/1 420/33/1
f 421/45/1 422/46/1 423/32/1 424/31/1
f 425/46/1 426/47/1 427/35/1 428/32/1
f 429/37/1 430/38/1 431/39/1 432/40/1
f 433/37/1 434/38/1 435/39/1 436/40/1
f 437/37/1 438/38/1 439/39/1 440/40/1
f 441/37/1 442/38/1 443/39/1 444/40/1
f 445/41/1 446/42/1 447/43/1 448/44/1
f 449/41/1 450/42/1 451/43/1 452/44/1
f 453/37/1 454/38/1 455/39/1 456/40/1
f 457/37/1 458/38/1 459/39/1 460/40/1
f 461/37/1 462/38/1 463/39/1 464/40/1
f 465/37/1 466/38/1 467/39/1 468/40/1
f 469/37/1 470/38/1 471/39/1 472/40/1
f 473/45/1 474/46/1 475/32/1 476/31/1
f 477/46/1 478/47/1 479/35/1 480/32/1
f 481/48/1 482/49/1 483/50/1 484/51/1
f 485/49/1 486/52/1 487/53/1 488/50/1
f 489/54/1 490/55/1 491/56/1 492/57/1
f 493/58/1 494/59/1 495/60/1 496/61/1
f 497/58/1 498/59/1 499/60/1 500/61/1
f 501/58/1 502/59/1 503/60/1 504/61/1
f 505/58/1 506/59/1 507/60/1 508/61/1
f 509/58/1 510/59/1 511/60/1 512/61/1
f 513/58/1 514/59/1 515/60/1 516/61/1
f 517/58/1 518/59/1 519/60/1 520/61/1
f 521/48/1 522/49/1 523/50/1 524/51/1
f 525/49/1 526/52/1 527/53/1 528/50/1
f 529/62/1 530/63/1 531/49/1 532/48/1
f 533/63/1 534/64/1 535/52/1 536/49/1
f 537/54/1 538/55/1 539/56/1 540/57/1
f 541/58/1 542/59/1 543/60/1 544/61/1
f 545/58/1 546/59/1 547/60/1 548/61/1
f 549/58/1 550/59/1 551/60/1 552/61/1
f 553/58/1 554/59/1 555/60/1 556/61/1
f 557/58/1 558/59/1 559/60/1 560/61/1
f 561/58/1 562/59/1 563/60/1 564/61/1
f 565/58/1 566/59/1 567/60/1 568/61/1
f 569/62/1 570/63/1 571/49/1 572/48/1
f 573/63/1 574/64/1 575/52/1 576/49/1
f 577/65/1 578/66/1 579/63/1 580/62/1
f 581/66/1 582/67/1 583/64/1 584/63/1
f 585/68/1 586/69/1 587/70/1 588/71/1
f 589/69/1 590/72/1 591/73/1 592/70/1
f 593/72/1 594/74/1 595/75/1 596/73/1
f 597/68/1 598/69/1 599/70/1 600/71/1
f 601/69/1 602/72/1 603/73/1 604/70/1
f 605/72/1 606/74/1 607/75/1 608/73/1
f 609/69/1 610/72/1 611/73/1 612/70/1
f 613/72/1 614/74/1 615/75/1 616/73/1
f 617/58/1 618/59/1 619/60/1 620/61/1
f 621/58/1 622/59/1 623/60/1 624/61/1
f 625/65/1 626/66/1 627/63/1 628/62/1
f 629/66/1 630/67/1 631/64/1 632/63/1
f 633/76/1 634/57/1 635/66/1 636/65/1
f 637/57/1 638/56/1 639/67/1 640/66/1
f 641/58/1 642/59/1 643/60/1 644/61/1
f 645/58/1 646/59/1 647/60/1 648/61/1
f 649/58/1 650/59/1 651/60/1 652/61/1
f 653/58/1 654/59/1 655/60/1 656/61/1
f 657/58/1 658/59/1 659/60/1 660/61/1
f 661/58/1 662/59/1 663/60/1 664/61/1
f 665/58/1 666/59/1 667/60/1 668/61/1
f 669/58/1 670/59/1 671/60/1 672/61/1
f 673/58/1 674/59/1 675/60/1 676/61/1
f 677/58/1 678/59/1 679/60/1 680/61/1
f 681/76/1 682/57/1 683/66/1 684/65/1
f 685/77/1 686/78/1 687/79/1 688/80/1
f 689/48/1 690/49/1 691/50/1 692/51/1
f 693/49/1 694/52/1 695/53/1 696/50/1
f 697/58/1 698/59/1 699/60/1 700/61/1
f 701/58/1 702/59/1 703/60/1 704/61/1
f 705/58/1 706/59/1 707/60/1 708/61/1
f 709/58/1 710/59/1 711/60/1 712/61/1
f 713/58/1 714/59/1 715/60/1 716/61/1
f 717/58/1 718/59/1 719/60/1 720/61/1
f 721/58/1 722/59/1 723/60/1 724/61/1
f 725/58/1 726/59/1 727/60/1 728/61/1
f 729/58/1 730/59/1 731/60/1 732/61/1
f 733/58/1 734/59/1 735/60/1 736/61/1
f 737/81/1 738/82/1 739/78/1 740/77/1
f 741/62/1 742/63/1 743/49/1 744/48/1
f 745/63/1 746/64/1 747/52/1 748/49/1
f 749/58/1 750/59/1 751/60/1 752/61/1
f 753/58/1 754/59/1 755/60/1 756/61/1
f 757/83/1 758/54/1 759/57/1 760/76/1
f 761/84/1 762/80/1 763/85/1 764/86/1
f 765/84/1 766/80/1 767/85/1 768/86/1
f 769/84/1 770/80/1 771/85/1 772/86/1
f 773/84/1 774/80/1 775/85/1 776/86/1
f 777/84/1 778/80/1 779/85/1 780/86/1
f 781/84/1 782/80/1 783/85/1 784/86/1
f 785/87/1 786/88/1 787/89/1 788/90/1
f 789/91/1 790/92/1 791/82/1 792/81/1
f 793/65/1 794/66/1 795/63/1 796/62/1
f 797/66/1 798/67/1 799/64/1 800/63/1
f 801/58/1 802/59/1 803/60/1 804/61/1
f 805/58/1 806/59/1 807/60/1 808/61/1
f 809/58/1 810/59/1 811/60/1 812/61/1
f 813/58/1 814/59/1 815/60/1 816/61/1
f 817/58/1 818/59/1 819/60/1 820/61/1
f 821/58/1 822/59/1 823/60/1 824/61/1
f 825/58/1 826/59/1 827/60/1 828/61/1
f 829/58/1 830/59/1 831/60/1 832/61/1
f 833/58/1 834/59/1 835/60/1 836/61/1
f 837/58/1 838/59/1 839/60/1 840/61/1
f 841/58/1 842/59/1 843/60/1 844/61/1
f 845/81/1 846/82/1 847/78/1 848/77/1
f 849/76/1 850/57/1 851/66/1 852/65/1
f 853/57/1 854/56/1 855/67/1 856/66/1
f 857/58/1 858/59/1 859/60/1 860/61/1
f 861/58/1 862/59/1 863/60/1 864/61/1
f 865/58/1 866/59/1 867/60/1 868/61/1
f 869/58/1 870/59/1 871/60/1 872/61/1
f 873/58/1 874/59/1 875/60/1 876/61/1
f 877/58/1 878/59/1 879/60/1 880/61/1
f 881/58/1 882/59/1 883/60/1 884/61/1
f 885/58/1 886/59/1 887/60/1 888/61/1
f 889/58/1 890/59/1 891/60/1 892/61/1
f 893/58/1 894/59/1 895/60/1 896/61/1
f 897/58/1 898/59/1 899/60/1 900/61/1
f 901/91/1 902/92/1 903/82/1 904/81/1
f 905/77/1 906/78/1 907/79/1 908/80/1
f 909/83/1 910/54/1 911/57/1 912/76/1
f 913/87/1 914/88/1 915/89/1 916/90/1
f 917/58/1 918/59/1 919/60/1 920/61/1
f 921/58/1 922/59/1 923/60/1 924/61/1
f 925/81/1 926/82/1 927/78/1 928/77/1
f 929/81/1 930/82/1 931/78/1 932/77/1
f 933/77/1 934/78/1 935/79/1 936/80/1
f 937/58/1 938/59/1 939/60/1 940/61/1
f 941/58/1 942/59/1 943/60/1 944/61/1
f 945/58/1 946/59/1 947/60/1 948/61/1
f 949/58/1 950/59/1 951/60/1 952/61/1
f 953/58/1 954/59/1 955/60/1 956/61/1
f 957/58/1 958/59/1 959/60/1 960/61/1
f 961/58/1 962/59/1 963/60/1 964/61/1
f 965/58/1 966/59/1 967/60/1 968/61/1
f 969/58/1 970/59/1 971/60/1 972/61/1
f 973/58/1 974/59/1 975/60/1 976/61/1
f 977/58/1 978/59/1 979/60/1 980/61/1
f 981/58/1 982/59/1 983/60/1 984/61/1
f 985/91/1 986/92/1 987/82/1 988/81/1
f 989/91/1 990/92/1 991/82/1 992/81/1
f 993/81/1 994/82/1 995/78/1 996/77/1
f 997/58/1 998/59/1 999/60/1 1000/61/1
f 1001/58/1 1002/59/1 1003/60/1 1004/61/1
f 1005/58/1 1006/59/1 1007/60/1 1008/61/1
f 1009/58/1 1010/59/1 1011/60/1 1012/61/1
f 1013/58/1 1014/59/1 1015/60/1 1016/61/1
f 1017/58/1 1018/59/1 1019/60/1 1020/61/1
f 1021/58/1 1022/59/1 1023/60/1 1024/61/1
f 1025/58/1 1026/59/1 1027/60/1 1028/61/1
f 1029/58/1 1030/59/1 1031/60/1 1032/61/1
f 1033/58/1 1034/59/1 1035/60/1 1036/61/1
f 1037/58/1 1038/59/1 1039/60/1 1040/61/1
f 1041/58/1 1042/59/1 1043/60/1 1044/61/1
f 1045/81/1 1046/82/1 1047/78/1 1048/77/1
f 1049/91/1 1050/92/1 1051/82/1 1052/81/1
f 1053/58/1 1054/59/1 1055/60/1 1056/61/1
f 1057/58/1 1058/59/1 1059/60/1 1060/61/1
f 1061/83/1 1062/54/1 1063/57/1 1064/76/1
f 1065/91/1 1066/92/1 1067/82/1 1068/81/1

